<svg width="17" height="17" viewBox="0 0 17 17" fill="none" xmlns="http://www.w3.org/2000/svg">
<g opacity="0.5">
<path fill-rule="evenodd" clip-rule="evenodd" d="M16.2381 12.3676V14.6533C16.2398 15.0824 16.0606 15.4923 15.7444 15.7824C15.4282 16.0724 15.0044 16.2158 14.5771 16.1772C12.2326 15.9224 9.98054 15.1213 8.00187 13.8381C6.16098 12.6683 4.60022 11.1076 3.43044 9.26668C2.14281 7.27903 1.34148 5.01601 1.09139 2.66097C1.0529 2.23496 1.19522 1.8124 1.4836 1.49649C1.77197 1.18058 2.17985 1.00042 2.60759 1.00001H4.8933C5.65815 0.992486 6.31006 1.55313 6.41711 2.31049C6.51358 3.04197 6.6925 3.76019 6.95044 4.45144C7.15976 5.0083 7.02588 5.63606 6.60758 6.05906L5.63997 7.02668C6.72458 8.93414 8.30393 10.5135 10.2114 11.5981L11.179 10.6305C11.602 10.2122 12.2298 10.0783 12.7866 10.2876C13.4779 10.5456 14.1961 10.7245 14.9276 10.821C15.6937 10.9291 16.2573 11.5941 16.2381 12.3676Z" stroke="#2D3A45" stroke-width="1.4" stroke-linecap="round" stroke-linejoin="round"/>
</g>
</svg>
