<svg width="15" height="16" viewBox="0 0 15 16" fill="none" xmlns="http://www.w3.org/2000/svg">
<path d="M1 3.80001H2.4H13.6" stroke="#2D3A45" stroke-width="1.4" stroke-linecap="round" stroke-linejoin="round"/>
<path d="M12.8999 3.8C12.8999 3.4134 12.5865 3.1 12.1999 3.1C11.8133 3.1 11.4999 3.4134 11.4999 3.8H12.8999ZM3.0999 3.8C3.0999 3.4134 2.7865 3.1 2.3999 3.1C2.0133 3.1 1.6999 3.4134 1.6999 3.8H3.0999ZM3.7999 3.8C3.7999 4.1866 4.1133 4.5 4.4999 4.5C4.8865 4.5 5.1999 4.1866 5.1999 3.8H3.7999ZM9.3999 3.8C9.3999 4.1866 9.7133 4.5 10.0999 4.5C10.4865 4.5 10.7999 4.1866 10.7999 3.8H9.3999ZM11.4999 3.8V13.6H12.8999V3.8H11.4999ZM11.4999 13.6C11.4999 13.9866 11.1865 14.3 10.7999 14.3V15.7C11.9597 15.7 12.8999 14.7598 12.8999 13.6H11.4999ZM10.7999 14.3H3.7999V15.7H10.7999V14.3ZM3.7999 14.3C3.4133 14.3 3.0999 13.9866 3.0999 13.6H1.6999C1.6999 14.7598 2.6401 15.7 3.7999 15.7V14.3ZM3.0999 13.6V3.8H1.6999V13.6H3.0999ZM5.1999 3.8V2.4H3.7999V3.8H5.1999ZM5.1999 2.4C5.1999 2.0134 5.5133 1.7 5.8999 1.7V0.3C4.7401 0.3 3.7999 1.2402 3.7999 2.4H5.1999ZM5.8999 1.7H8.6999V0.3H5.8999V1.7ZM8.6999 1.7C9.0865 1.7 9.3999 2.0134 9.3999 2.4H10.7999C10.7999 1.2402 9.8597 0.3 8.6999 0.3V1.7ZM9.3999 2.4V3.8H10.7999V2.4H9.3999Z" fill="#2D3A45"/>
<path d="M5.8998 7.29999V11.5" stroke="#2D3A45" stroke-width="1.4" stroke-linecap="round" stroke-linejoin="round"/>
<path d="M8.7001 7.29999V11.5" stroke="#2D3A45" stroke-width="1.4" stroke-linecap="round" stroke-linejoin="round"/>
</svg>
